<svg xmlns="http://www.w3.org/2000/svg" width="51.146" height="45.463" viewBox="0 0 51.146 45.463">
  <defs>
    <style>
      .cls-1 {
        opacity: 0.42;
      }

      .cls-2 {
        fill: #d5d5d5;
      }
    </style>
  </defs>
  <g id="Group_25688" data-name="Group 25688" class="cls-1">
    <path id="Path_76944" data-name="Path 76944" class="cls-2" d="M11.366,22.732A11.366,11.366,0,1,1,22.732,11.366,11.366,11.366,0,0,1,11.366,22.732Zm0-17.049a5.683,5.683,0,1,0,5.683,5.683A5.683,5.683,0,0,0,11.366,5.683Z" transform="translate(0 22.731)"/>
    <path id="Path_76945" data-name="Path 76945" class="cls-2" d="M2.841,30.914a2.841,2.841,0,0,1-2.009-4.85L26.064.832a2.841,2.841,0,0,1,4.018,0l5.683,5.683a2.841,2.841,0,1,1-4.018,4.018L28.073,6.859,4.85,30.082a2.841,2.841,0,0,1-2.009.833Z" transform="translate(14.549 0)"/>
    <path id="Path_76946" data-name="Path 76946" class="cls-2" d="M8.524,11.366a2.841,2.841,0,0,1-2.008-.832L.833,4.85A2.841,2.841,0,1,1,4.851.832l5.683,5.683a2.841,2.841,0,0,1-2.009,4.85Z" transform="translate(31.256 8.524)"/>
  </g>
</svg>
