<svg xmlns="http://www.w3.org/2000/svg" width="24" height="24" viewBox="0 0 24 24">
  <defs>
    <style>
      .cls-1, .cls-3, .cls-4 {
        fill: none;
      }

      .cls-2 {
        isolation: isolate;
      }

      .cls-3, .cls-4 {
        stroke: #ff6000;
        stroke-linecap: round;
        stroke-linejoin: round;
      }

      .cls-4 {
        stroke-width: 0.6px;
      }
    </style>
  </defs>
  <g id="calculate_white_24dp" transform="translate(0 0.004)">
    <g id="Group_19696" data-name="Group 19696" transform="translate(0 -0.004)">
      <rect id="Rectangle_5600" data-name="Rectangle 5600" class="cls-1" width="24" height="24"/>
    </g>
    <g id="Group_19697" data-name="Group 19697" class="cls-2" transform="translate(3.1 3.101)">
      <path id="Path_19363" data-name="Path 19363" class="cls-3" d="M19.145,3H5.018A2.024,2.024,0,0,0,3,5.018V19.145a2.024,2.024,0,0,0,2.018,2.018H19.145a2.024,2.024,0,0,0,2.018-2.018V5.018A2.024,2.024,0,0,0,19.145,3Z" transform="translate(-3 -3)"/>
      <path id="Icon_awesome-arrow-right" data-name="Icon awesome-arrow-right" class="cls-4" d="M3.089,3.122l.36-.36a.388.388,0,0,1,.55,0L7.151,5.912a.388.388,0,0,1,0,.55L4,9.614a.388.388,0,0,1-.55,0l-.36-.36A.39.39,0,0,1,3.1,8.7L5.05,6.837H.389A.388.388,0,0,1,0,6.447V5.929a.388.388,0,0,1,.389-.389H5.05L3.1,3.678A.387.387,0,0,1,3.089,3.122Z" transform="translate(2.947 -0.107)"/>
      <path id="Icon_awesome-arrow-right-2" data-name="Icon awesome-arrow-right" class="cls-4" d="M3.089,3.122l.36-.36a.388.388,0,0,1,.55,0L7.151,5.912a.388.388,0,0,1,0,.55L4,9.614a.388.388,0,0,1-.55,0l-.36-.36A.39.39,0,0,1,3.1,8.7L5.05,6.837H.389A.388.388,0,0,1,0,6.447V5.929a.388.388,0,0,1,.389-.389H5.05L3.1,3.678A.387.387,0,0,1,3.089,3.122Z" transform="translate(15.213 18.269) rotate(180)"/>
    </g>
  </g>
</svg>
