<svg id="person_add_white_24dp" xmlns="http://www.w3.org/2000/svg" width="24" height="24" viewBox="0 0 24 24">
  <defs>
    <style>
      .cls-1, .cls-2 {
        fill: none;
      }

      .cls-2 {
        stroke: #ff6000;
        stroke-linecap: round;
        stroke-linejoin: round;
      }
    </style>
  </defs>
  <path id="Path_19350" data-name="Path 19350" class="cls-1" d="M0,0H24V24H0Z"/>
  <path id="Path_19351" data-name="Path 19351" class="cls-2" d="M12.455,10.843a3.349,3.349,0,0,0,3.273-3.422A3.349,3.349,0,0,0,12.455,4,3.349,3.349,0,0,0,9.182,7.422,3.349,3.349,0,0,0,12.455,10.843ZM5.091,9.132V6.566H3.455V9.132H1v1.711H3.455v2.566H5.091V10.843H7.545V9.132Zm7.364,3.422c-2.185,0-6.545,1.146-6.545,3.422v1.711H19V15.975C19,13.7,14.639,12.554,12.455,12.554Z" transform="translate(1.999 1.157)"/>
</svg>
