<svg xmlns="http://www.w3.org/2000/svg" width="13.197" height="13.197" viewBox="0 0 13.197 13.197">
  <defs>
    <style>
      .cls-1 {
        opacity: 0.3;
      }

      .cls-2 {
        fill: none;
      }

      .cls-3 {
        fill: #26205d;
      }
    </style>
  </defs>
  <g id="build_black_24dp" class="cls-1" transform="translate(0 0)">
    <path id="Path_51974" data-name="Path 51974" class="cls-2" d="M0,0H13.2V13.2H0Z" transform="translate(0 0)"/>
    <path id="Path_51975" data-name="Path 51975" class="cls-3" d="M6.171,1.895A3.038,3.038,0,0,0,2.7,1.319L4.394,3.006a.462.462,0,0,1,0,.655L3.653,4.4A.457.457,0,0,1,3,4.4L1.3,2.713A3.022,3.022,0,0,0,5.1,6.853l3.711,3.7a1.221,1.221,0,0,0,1.73-1.724L6.846,5.143A3.017,3.017,0,0,0,6.171,1.895Z" transform="translate(0.648 0.636)"/>
  </g>
</svg>
