<svg id="Group_21627" data-name="Group 21627" xmlns="http://www.w3.org/2000/svg" width="28" height="28" viewBox="0 0 28 28">
  <defs>
    <style>
      .cls-1, .cls-2, .cls-3 {
        fill: none;
      }

      .cls-1, .cls-2 {
        stroke: #707070;
        stroke-width: 2px;
      }

      .cls-2 {
        stroke-linecap: round;
        stroke-linejoin: round;
      }
    </style>
  </defs>
  <g id="Group_21622" data-name="Group 21622" transform="translate(6.424 4.375)">
    <g id="Group_21623" data-name="Group 21623">
      <path id="Path_51949" data-name="Path 51949" class="cls-1" d="M18393.838-4348.091l1.072-7.7a1.791,1.791,0,0,1,1.813-1.409c1.51.05,8.484,0,8.484,0s1.813-.151,2.164,1.409,1.459,12.18,1.459,12.18.605,2.517-1.961,2.567-11.607,0-11.607,0a1.789,1.789,0,0,1-1.912-1.963C18393.5-4345.021,18393.838-4348.091,18393.838-4348.091Z" transform="translate(-18393.342 4360.919)"/>
      <path id="Path_51950" data-name="Path 51950" class="cls-2" d="M18410.713-4365.424v-4.661a3.188,3.188,0,0,1,3.346-2.767,2.858,2.858,0,0,1,3.057,2.767v4.661" transform="translate(-18406.141 4372.852)"/>
    </g>
  </g>
  <path id="Path_51953" data-name="Path 51953" class="cls-3" d="M0,0H28V28H0Z"/>
</svg>
