<svg id="local_mall_black_24dp" xmlns="http://www.w3.org/2000/svg" width="24" height="24" viewBox="0 0 24 24">
  <defs>
    <style>
      .cls-1 {
        fill: rgba(0,0,0,0);
      }

      .cls-2 {
        fill: none;
        stroke: #ff6000;
      }
    </style>
  </defs>
  <path id="Path_19379" data-name="Path 19379" class="cls-1" d="M0,0H24V24H0Z"/>
  <path id="Path_19380" data-name="Path 19380" class="cls-2" d="M17.222,5.353H15.444a4.445,4.445,0,0,0-8.889,0H4.778A1.757,1.757,0,0,0,3.009,7.094L3,17.542a1.765,1.765,0,0,0,1.778,1.741H17.222A1.765,1.765,0,0,0,19,17.542V7.094A1.765,1.765,0,0,0,17.222,5.353ZM11,2.741a2.636,2.636,0,0,1,2.667,2.612H8.333A2.636,2.636,0,0,1,11,2.741Zm0,8.706A4.4,4.4,0,0,1,6.556,7.094H8.333a2.667,2.667,0,0,0,5.333,0h1.778A4.4,4.4,0,0,1,11,11.447Z" transform="translate(1 1.859)"/>
</svg>
