<svg xmlns="http://www.w3.org/2000/svg" xmlns:xlink="http://www.w3.org/1999/xlink" width="90" height="90" viewBox="0 0 90 90">
  <defs>
    <style>
      .cls-1 {
        fill: #09aa4a;
      }

      .cls-2 {
        fill: none;
      }

      .cls-3 {
        fill: #fff;
      }

      .cls-4 {
        filter: url(#Rectangle_6487);
      }
    </style>
    <filter id="Rectangle_6487" x="0" y="0" width="90" height="90" filterUnits="userSpaceOnUse">
      <feOffset dy="4" input="SourceAlpha"/>
      <feGaussianBlur stdDeviation="7" result="blur"/>
      <feFlood flood-opacity="0.161"/>
      <feComposite operator="in" in2="blur"/>
      <feComposite in="SourceGraphic"/>
    </filter>
  </defs>
  <g id="Group_25616" data-name="Group 25616" transform="translate(21 17)">
    <g id="Group_25603" data-name="Group 25603">
      <g class="cls-4" transform="matrix(1, 0, 0, 1, -21, -17)">
        <rect id="Rectangle_6487-2" data-name="Rectangle 6487" class="cls-1" width="48" height="48" rx="10" transform="translate(21 17)"/>
      </g>
    </g>
    <g id="dns_black_24dp" transform="translate(42 42) rotate(180)">
      <path id="Path_53135" data-name="Path 53135" class="cls-2" d="M0,0H36V36H0Z"/>
    </g>
    <g id="noun_Candlestick_Chart_1759317_1_" data-name="noun_Candlestick Chart_1759317 (1)" transform="translate(3.741 3.741)">
      <g id="Group_25665" data-name="Group 25665" transform="translate(6 6)">
        <path id="Path_76934" data-name="Path 76934" class="cls-3" d="M9.336,6H8.224V8.641H6V22.819H8.224v5.143H9.336V22.819H11.56V8.641H9.336Z" transform="translate(-6 -6)"/>
        <path id="Path_76935" data-name="Path 76935" class="cls-3" d="M35.336,32.5H34.224v3.336H32V50.431h2.224v1.946h1.112V50.431H37.56V35.836H35.336Z" transform="translate(-24.347 -23.859)"/>
        <path id="Path_76936" data-name="Path 76936" class="cls-3" d="M61.336,21H60.224v5.784H58v9.343h2.224v5.19h1.112v-5.19H63.56V26.784H61.336Z" transform="translate(-42.695 -16.83)"/>
        <path id="Path_76937" data-name="Path 76937" class="cls-3" d="M89.56,42.172H87.336V35.5H86.224v6.672H84v8.2h2.224V52.6h1.112V50.373H89.56Z" transform="translate(-61.042 -26.025)"/>
      </g>
    </g>
  </g>
</svg>
