<svg xmlns="http://www.w3.org/2000/svg" xmlns:xlink="http://www.w3.org/1999/xlink" width="194.184" height="215.353" viewBox="0 0 194.184 215.353">
  <defs>
    <style>
      .cls-1, .cls-2 {
        opacity: 0.5;
      }

      .cls-1 {
        fill: url(#linear-gradient);
      }

      .cls-2 {
        fill: url(#linear-gradient-2);
      }

      .cls-3 {
        filter: url(#Rectangle_6540);
      }

      .cls-4 {
        filter: url(#Path_76978);
      }
    </style>
    <linearGradient id="linear-gradient" x1="0.75" y1="0.6" x2="0.579" y2="1.094" gradientUnits="objectBoundingBox">
      <stop offset="0" stop-color="#8a5bfe"/>
      <stop offset="1" stop-color="#31ba95"/>
    </linearGradient>
    <filter id="Path_76978" x="0" y="0" width="194.184" height="200.245" filterUnits="userSpaceOnUse">
      <feOffset dy="3" input="SourceAlpha"/>
      <feGaussianBlur stdDeviation="16" result="blur"/>
      <feFlood flood-opacity="0.078"/>
      <feComposite operator="in" in2="blur"/>
      <feComposite in="SourceGraphic"/>
    </filter>
    <linearGradient id="linear-gradient-2" x1="1" y1="0.947" x2="-0.182" y2="0.456" xlink:href="#linear-gradient"/>
    <filter id="Rectangle_6540" x="43.586" y="36.461" width="141.507" height="178.893" filterUnits="userSpaceOnUse">
      <feOffset dy="3" input="SourceAlpha"/>
      <feGaussianBlur stdDeviation="16" result="blur-2"/>
      <feFlood flood-opacity="0.078"/>
      <feComposite operator="in" in2="blur-2"/>
      <feComposite in="SourceGraphic"/>
    </filter>
  </defs>
  <g id="Group_26858" data-name="Group 26858" transform="translate(-1286.016 -785.5)">
    <g class="cls-4" transform="matrix(1, 0, 0, 1, 1286.02, 785.5)">
      <path id="Path_76978-2" data-name="Path 76978" class="cls-1" d="M28.147,79.369a4.756,4.756,0,0,0,8.859-.039L65.486,6.391A4.68,4.68,0,0,0,61.085,0L4.771.248A4.763,4.763,0,0,0,.313,6.678Z" transform="translate(89.19 45) rotate(30)"/>
    </g>
    <g class="cls-3" transform="matrix(1, 0, 0, 1, 1286.02, 785.5)">
      <rect id="Rectangle_6540-2" data-name="Rectangle 6540" class="cls-2" width="82.893" height="45.507" rx="10" transform="translate(91.59 164.35) rotate(-90)"/>
    </g>
  </g>
</svg>
