<svg xmlns="http://www.w3.org/2000/svg" width="36" height="35.995" viewBox="0 0 36 35.995">
  <defs>
    <style>
      .cls-1 {
        fill: #1a5fdb;
      }
    </style>
  </defs>
  <path id="Path_76942" data-name="Path 76942" class="cls-1" d="M11.8,30.8a3.6,3.6,0,1,0,3.6,3.6A3.594,3.594,0,0,0,11.8,30.8ZM1,3.8A1.8,1.8,0,0,0,2.8,5.6H4.6l6.478,13.66L8.647,23.651A3.606,3.606,0,0,0,11.8,29H31.589a1.8,1.8,0,0,0,0-3.6H11.8l1.979-3.6H27.18a3.581,3.581,0,0,0,3.149-1.854l6.442-11.68A1.793,1.793,0,0,0,35.205,5.6H8.575L7.37,3.026A1.786,1.786,0,0,0,5.75,2H2.8A1.8,1.8,0,0,0,1,3.8Zm28.789,27a3.6,3.6,0,1,0,3.6,3.6A3.594,3.594,0,0,0,29.789,30.8Z" transform="translate(-1 -2)"/>
</svg>
