<svg xmlns="http://www.w3.org/2000/svg" width="24.5" height="24.5" viewBox="0 0 24.5 24.5">
  <defs>
    <style>
      .cls-1 {
        fill: #575757;
        stroke: #575757;
        stroke-width: 0.5px;
      }
    </style>
  </defs>
  <g id="Icon_ionic-ios-add-circle-outline" data-name="Icon ionic-ios-add-circle-outline" transform="translate(0.25 0.25)">
    <path id="Path_53111" data-name="Path 53111" class="cls-1" d="M23.522,16.489H18.6v-4.92a1.057,1.057,0,1,0-2.113,0v4.92h-4.92a1.012,1.012,0,0,0-1.057,1.057A1.023,1.023,0,0,0,11.568,18.6h4.92v4.92a1.024,1.024,0,0,0,1.057,1.057A1.051,1.051,0,0,0,18.6,23.522V18.6h4.92a1.057,1.057,0,0,0,0-2.113Z" transform="translate(-5.545 -5.545)"/>
    <path id="Path_53112" data-name="Path 53112" class="cls-1" d="M15.375,4.99a10.381,10.381,0,1,1-7.344,3.04,10.316,10.316,0,0,1,7.344-3.04m0-1.615a12,12,0,1,0,12,12,12,12,0,0,0-12-12Z" transform="translate(-3.375 -3.375)"/>
  </g>
</svg>
