<svg xmlns="http://www.w3.org/2000/svg" width="14" height="14" viewBox="0 0 14 14">
  <defs>
    <style>
      .cls-1 {
        fill: none;
      }

      .cls-2 {
        fill: #fff;
        stroke: #fff;
        stroke-width: 0.6px;
      }
    </style>
  </defs>
  <g id="east_black_24dp" transform="translate(0.348 0.348)">
    <rect id="Rectangle_5765" data-name="Rectangle 5765" class="cls-1" width="14" height="14" transform="translate(-0.348 -0.348)"/>
    <path id="Path_51958" data-name="Path 51958" class="cls-2" d="M9.079,5.586h0a.574.574,0,0,0,0,.812l2.235,2.235H2.576A.578.578,0,0,0,2,9.209H2a.578.578,0,0,0,.576.576H11.32L9.085,12.02a.574.574,0,0,0,0,.812h0a.574.574,0,0,0,.812,0l3.22-3.22a.574.574,0,0,0,0-.812L9.891,5.586A.574.574,0,0,0,9.079,5.586Z" transform="translate(-0.294 -2.573)"/>
  </g>
</svg>
