<svg xmlns="http://www.w3.org/2000/svg" width="22" height="22" viewBox="0 0 22 22">
  <defs>
    <style>
      .cls-1 {
        fill: #ef5713;
      }

      .cls-1, .cls-2 {
        fill-rule: evenodd;
      }

      .cls-2 {
        fill: #fff;
      }
    </style>
  </defs>
  <g id="Group_19733" data-name="Group 19733" transform="translate(-486.345 -615.501)">
    <path id="Path_12236" data-name="Path 12236" class="cls-1" d="M34.093,25a11,11,0,1,1-11,11,11,11,0,0,1,11-11Z" transform="translate(463.252 590.501)"/>
    <path id="Path_12237" data-name="Path 12237" class="cls-2" d="M37.623,40.284l.446-1.047H36.892l.732,1.047Zm-.192-2.149.638,1.1.47-1.1Zm0,0,.652-1.333H36.665l.766,1.333ZM33.843,36.8l1.407,2.739L36.665,36.8Zm1.407,2.739-1.485,2.866H36.72l-.706-1.378-.764-1.488Zm.727-1.406.7,1.532.211-.431h0l.539-1.1Zm.7,1.532-.666,1.362h1.291l-.624-1.362Zm.942.617-.318.746h.839l-.521-.746Zm-.9,2.124h1.213l-.631-1.378-.585,1.378Zm1.314,2.557L36.72,42.408l-1.092,2.557Zm1.071-2.557h0l-.209-.3-.753-1.078H40.07l-.963,1.378Zm-3.658-7.7,2-2.611H33.937l1.511,2.611Zm2.305,0H35.449L36.665,36.8l1.089-2.093ZM33.843,36.8l1.606-2.093H32.768L33.843,36.8Zm0,0H29.681l2.028,2.783L33.843,36.8Zm-.078,5.606L32.44,44.965h3.188l-1.863-2.557Zm-4.221,0h4.221l-2.057-2.823-2.165,2.823Zm5.2,4.641h2.407l-1.519-2.084-.888,2.084Zm5.851-6.765-.446-1.047h1.178l-.732,1.047Zm.192-2.149-.638,1.1-.47-1.1Zm0,0L40.131,36.8h1.418l-.766,1.333ZM44.371,36.8l-1.407,2.739L41.549,36.8Zm-1.407,2.739,1.485,2.866H41.494l.705-1.378.765-1.488Zm-.727-1.406-.7,1.532-.211-.431h0l-.54-1.1Zm-.7,1.532.666,1.362h-1.29l.624-1.362Zm-.942.617.318.746H40.07l.521-.746Zm.9,2.124H40.278l.631-1.378.585,1.378Zm-1.314,2.557,1.316-2.557,1.092,2.557Zm-1.071-6.83h.568L39.107,36.8h0l-.568,1.333h.568Zm0,2.895h0l.143-.249.894-1.544H38.069l1.038,1.793h0Zm0,3.935h0l1.171-2.557H37.936l.9,1.973.267.584h0Zm3.659-10.256-2-2.611h3.514l-1.511,2.611Zm-2.306,0h2.306L41.549,36.8,40.46,34.708ZM44.371,36.8l-1.606-2.093h2.681L44.371,36.8Zm0,0h4.162l-2.028,2.783L44.371,36.8Zm.078,5.606,1.325,2.557H42.586l1.863-2.557Zm4.221,0H44.449l2.057-2.823,2.165,2.823Zm-5.2,4.641H41.067l1.519-2.084.888,2.084ZM39.107,32.1h1.656l-1.656-2.159h0L37.451,32.1h1.656Zm0,2.611H40.46L39.107,32.1h0l-1.353,2.611h1.353Zm0,2.093h1.024l-.618-1.263-.406-.83h0L38.083,36.8h1.024Zm0,10.246h0l.276-.538.794-1.545H38.036l1.071,2.084h0Zm0,2.69h0l1.96-2.689h-3.92l1.96,2.689Z" transform="translate(458.238 586.662)"/>
  </g>
</svg>
