<svg xmlns="http://www.w3.org/2000/svg" width="40" height="40" viewBox="0 0 40 40">
  <defs>
    <style>
      .cls-1 {
        fill: #fff;
      }

      .cls-2 {
        fill: none;
      }

      .cls-3 {
        fill: #30d158;
      }
    </style>
  </defs>
  <g id="Group_26412" data-name="Group 26412" transform="translate(-481 -259)">
    <rect id="Rectangle_6456" data-name="Rectangle 6456" class="cls-1" width="40" height="40" rx="16" transform="translate(481 259)"/>
    <g id="business_center_black_24dp" transform="translate(489 266)">
      <path id="Path_51961" data-name="Path 51961" class="cls-2" d="M0,0H24V24H0Z"/>
      <path id="Path_51962" data-name="Path 51962" class="cls-3" d="M11.9,15.023H10.1a.915.915,0,0,1-.9-.925H2.909v3.7a1.831,1.831,0,0,0,1.8,1.85H17.3a1.831,1.831,0,0,0,1.8-1.85V14.1H12.8A.915.915,0,0,1,11.9,15.023ZM18.2,6.7H14.6a3.6,3.6,0,1,0-7.2,0H3.8A1.831,1.831,0,0,0,2,8.549v2.775a1.819,1.819,0,0,0,1.8,1.85H9.2v-.925a.915.915,0,0,1,.9-.925h1.8a.915.915,0,0,1,.9.925v.925h5.4a1.831,1.831,0,0,0,1.8-1.85V8.549A1.831,1.831,0,0,0,18.2,6.7Zm-9,0a1.8,1.8,0,1,1,3.6,0H9.2Z" transform="translate(1 0.676)"/>
    </g>
  </g>
</svg>
