<svg id="Group_26868" data-name="Group 26868" xmlns="http://www.w3.org/2000/svg" width="112.999" height="22" viewBox="0 0 112.999 22">
  <defs>
    <style>
      .cls-1, .cls-3 {
        fill: none;
      }

      .cls-2 {
        fill: #ffa41c;
      }

      .cls-3 {
        stroke: #ffa41c;
      }
    </style>
  </defs>
  <g id="star_rate_black_24dp">
    <rect id="Rectangle_6281" data-name="Rectangle 6281" class="cls-1" width="23" height="22"/>
    <path id="Path_76741" data-name="Path 76741" class="cls-2" d="M13.68,9.6,12.317,5.108a.924.924,0,0,0-1.771,0L9.173,9.6H5.047a.926.926,0,0,0-.538,1.678l3.375,2.411L6.559,17.96A.926.926,0,0,0,8.005,18.97l3.422-2.6,3.422,2.606a.926.926,0,0,0,1.446-1.011l-1.326-4.275,3.375-2.411a.925.925,0,0,0-.538-1.678H13.68Z" transform="translate(0.022 -0.756)"/>
  </g>
  <g id="star_rate_black_24dp-2" data-name="star_rate_black_24dp" transform="translate(22.999)">
    <rect id="Rectangle_6281-2" data-name="Rectangle 6281" class="cls-1" width="22" height="22"/>
    <path id="Path_76741-2" data-name="Path 76741" class="cls-2" d="M13.68,9.6,12.317,5.108a.924.924,0,0,0-1.771,0L9.173,9.6H5.047a.926.926,0,0,0-.538,1.678l3.375,2.411L6.559,17.96A.926.926,0,0,0,8.005,18.97l3.422-2.6,3.422,2.606a.926.926,0,0,0,1.446-1.011l-1.326-4.275,3.375-2.411a.925.925,0,0,0-.538-1.678H13.68Z" transform="translate(-0.513 -0.756)"/>
  </g>
  <g id="star_rate_black_24dp-3" data-name="star_rate_black_24dp" transform="translate(44.998)">
    <rect id="Rectangle_6281-3" data-name="Rectangle 6281" class="cls-1" width="23" height="22"/>
    <path id="Path_76741-3" data-name="Path 76741" class="cls-2" d="M13.68,9.6,12.317,5.108a.924.924,0,0,0-1.771,0L9.173,9.6H5.047a.926.926,0,0,0-.538,1.678l3.375,2.411L6.559,17.96A.926.926,0,0,0,8.005,18.97l3.422-2.6,3.422,2.606a.926.926,0,0,0,1.446-1.011l-1.326-4.275,3.375-2.411a.925.925,0,0,0-.538-1.678H13.68Z" transform="translate(-0.048 -0.756)"/>
  </g>
  <g id="star_rate_black_24dp-4" data-name="star_rate_black_24dp" transform="translate(68)">
    <rect id="Rectangle_6281-4" data-name="Rectangle 6281" class="cls-1" width="22" height="22"/>
    <path id="Path_76741-4" data-name="Path 76741" class="cls-2" d="M13.68,9.6,12.317,5.108a.924.924,0,0,0-1.771,0L9.173,9.6H5.047a.926.926,0,0,0-.538,1.678l3.375,2.411L6.559,17.96A.926.926,0,0,0,8.005,18.97l3.422-2.6,3.422,2.606a.926.926,0,0,0,1.446-1.011l-1.326-4.275,3.375-2.411a.925.925,0,0,0-.538-1.678H13.68Z" transform="translate(-0.585 -0.756)"/>
  </g>
  <g id="star_rate_black_24dp-5" data-name="star_rate_black_24dp" transform="translate(89.999)">
    <rect id="Rectangle_6281-5" data-name="Rectangle 6281" class="cls-1" width="23" height="22"/>
    <path id="Path_76741-5" data-name="Path 76741" class="cls-3" d="M13.68,9.6,12.317,5.108a.924.924,0,0,0-1.771,0L9.173,9.6H5.047a.926.926,0,0,0-.538,1.678l3.375,2.411L6.559,17.96A.926.926,0,0,0,8.005,18.97l3.422-2.6,3.422,2.606a.926.926,0,0,0,1.446-1.011l-1.326-4.275,3.375-2.411a.925.925,0,0,0-.538-1.678H13.68Z" transform="translate(-0.12 -0.756)"/>
  </g>
</svg>
