<svg xmlns="http://www.w3.org/2000/svg" width="32.669" height="89.963" viewBox="0 0 32.669 89.963">
  <defs>
    <style>
      .cls-1 {
        fill: #fff;
        opacity: 0.43;
      }

      .cls-2 {
        fill: none;
      }

      .cls-3 {
        fill: #039a3a;
        stroke: #039a3a;
      }
    </style>
  </defs>
  <g id="Group_26408" data-name="Group 26408" transform="translate(-672 -1091.94)">
    <path id="Path_76947" data-name="Path 76947" class="cls-1" d="M74.279,28.688a10.981,10.981,0,1,1,10.98,10.981A10.993,10.993,0,0,1,74.279,28.688ZM96.241,57.952A10.981,10.981,0,1,1,85.259,46.971,10.993,10.993,0,0,1,96.241,57.952Zm-4.148,0a6.833,6.833,0,1,0-6.834,6.833A6.84,6.84,0,0,0,92.093,57.952Zm4.148,29.264A10.981,10.981,0,1,1,85.259,76.235,10.993,10.993,0,0,1,96.241,87.216Zm-4.148,0a6.833,6.833,0,1,0-6.834,6.832A6.841,6.841,0,0,0,92.093,87.216Z" transform="translate(598 1083.707)"/>
    <g id="done_black_24dp" transform="translate(672 1091.94)">
      <path id="Path_76948" data-name="Path 76948" class="cls-2" d="M0,0H32.669V32.669H0Z"/>
      <path id="Path_76949" data-name="Path 76949" class="cls-3" d="M10.876,19.882,6.111,15.117a1.348,1.348,0,1,0-1.906,1.906l5.7,5.7a1.356,1.356,0,0,0,1.919,0L26.257,8.311a1.348,1.348,0,0,0-1.906-1.906Z" transform="translate(1.375 2.17)"/>
    </g>
  </g>
</svg>
