<svg xmlns="http://www.w3.org/2000/svg" width="40" height="40" viewBox="0 0 40 40">
  <defs>
    <style>
      .cls-1 {
        fill: #eb002e;
      }
    </style>
  </defs>
  <path id="Path_76976" data-name="Path 76976" class="cls-1" d="M35.556,22.222H4.444A4.458,4.458,0,0,0,0,26.667v8.889A4.458,4.458,0,0,0,4.444,40H35.556A4.458,4.458,0,0,0,40,35.556V26.667A4.458,4.458,0,0,0,35.556,22.222ZM8.889,35.556a4.444,4.444,0,1,1,4.444-4.444A4.458,4.458,0,0,1,8.889,35.556ZM35.556,0H4.444A4.458,4.458,0,0,0,0,4.444v8.889a4.458,4.458,0,0,0,4.444,4.444H35.556A4.458,4.458,0,0,0,40,13.333V4.444A4.458,4.458,0,0,0,35.556,0ZM8.889,13.333a4.444,4.444,0,1,1,4.444-4.444A4.458,4.458,0,0,1,8.889,13.333Z" transform="translate(40 40) rotate(180)"/>
</svg>
